<?xml version="1.0" encoding="UTF-8"?>
<svg version="1.1" xmlns="http://www.w3.org/2000/svg" width="330" height="206">
<path d="M0 0 C3.82129617 1.28717345 4.50149214 2.51090115 6.46875 6 C6.78207275 6.54382324 7.09539551 7.08764648 7.41821289 7.64794922 C8.16240791 8.94955819 8.89587609 10.25732868 9.62158203 11.56933594 C11.24530772 14.4989867 12.90237414 17.40891166 14.55859375 20.3203125 C17.07998407 24.77254347 19.59617387 29.22748729 22.08984375 33.6953125 C22.6202124 34.64422363 23.15058105 35.59313477 23.69702148 36.57080078 C24.96875 39 24.96875 39 25.96875 42 C26.62875 42 27.28875 42 27.96875 42 C28.37057495 40.93483154 28.37057495 40.93483154 28.78051758 39.84814453 C30.95720638 34.63071046 33.88727523 29.79634122 36.65625 24.875 C37.25630859 23.79734375 37.85636719 22.7196875 38.47460938 21.609375 C40.27988023 18.39052471 42.11895807 15.19343903 43.96875 12 C44.86327881 10.40526855 44.86327881 10.40526855 45.77587891 8.77832031 C46.65445557 7.28316895 46.65445557 7.28316895 47.55078125 5.7578125 C48.06487549 4.86465332 48.57896973 3.97149414 49.10864258 3.05126953 C50.96875 1 50.96875 1 53.93237305 0.01513672 C56.96875 0 56.96875 0 59.13014221 1.15074158 C60.96875 3 60.96875 3 61.44976807 5.52470398 C61.4364444 7.03360954 61.4364444 7.03360954 61.42285156 8.57299805 C61.42254944 9.71395432 61.42224731 10.85491058 61.42193604 12.03044128 C61.40129089 13.26176285 61.38064575 14.49308441 61.359375 15.76171875 C61.35371521 17.02264847 61.34805542 18.28357819 61.34222412 19.5827179 C61.32361056 22.93195268 61.28768566 26.28009717 61.2434082 29.62902832 C61.20245857 33.04751163 61.18421388 36.46610764 61.1640625 39.88476562 C61.11991185 46.59018439 61.05083857 53.29494267 60.96875 60 C57.00875 60 53.04875 60 48.96875 60 C48.63875 50.43 48.30875 40.86 47.96875 31 C43.867986 38.29760251 43.867986 38.29760251 39.77246094 45.59814453 C38.68854199 47.52147676 37.59235867 49.43793044 36.48632812 51.34863281 C35.59612269 52.90391451 34.73244402 54.47596223 33.93554688 56.08105469 C32.70486639 58.38148052 31.63709888 59.79006766 29.10644531 60.58496094 C26.79270484 60.80914812 25.18334487 60.71231634 22.96875 60 C20.92321795 57.68906664 19.81256637 56.05837497 18.46875 53.375 C18.10273682 52.70654053 17.73672363 52.03808105 17.35961914 51.34936523 C16.59523289 49.95108168 15.84285568 48.54617252 15.10205078 47.13525391 C13.65947996 44.4173038 12.1264801 41.75728443 10.58178711 39.09643555 C9.02748889 36.40716069 7.50081382 33.70200346 5.96875 31 C5.63875 40.57 5.30875 50.14 4.96875 60 C1.00875 60 -2.95125 60 -7.03125 60 C-7.121602 52.61997953 -7.19499438 45.240261 -7.23849869 37.85980511 C-7.25937821 34.43277637 -7.28770083 31.00614546 -7.33300781 27.5793457 C-7.38476325 23.64018508 -7.40419237 19.70118582 -7.421875 15.76171875 C-7.44252014 14.53039719 -7.46316528 13.29907562 -7.48443604 12.03044128 C-7.48473816 10.88948502 -7.48504028 9.74852875 -7.48535156 8.57299805 C-7.49423401 7.567061 -7.50311646 6.56112396 -7.51226807 5.52470398 C-7.03125 3 -7.03125 3 -5.19232178 1.15168762 C-3.03125 0 -3.03125 0 0 0 Z " fill="#270849" transform="translate(206.03125,112)"/>
<path d="M0 0 C0.82062424 0.00007553 1.64124847 0.00015106 2.48674011 0.00022888 C3.80875175 0.00797081 3.80875175 0.00797081 5.1574707 0.01586914 C6.5161602 0.01799156 6.5161602 0.01799156 7.90229797 0.02015686 C10.79598286 0.02575538 13.68959044 0.03830758 16.58325195 0.05102539 C18.54483938 0.05604058 20.50642801 0.06060346 22.46801758 0.06469727 C27.27729217 0.07572432 32.08650895 0.09298792 36.89575195 0.11352539 C36.89575195 4.07352539 36.89575195 8.03352539 36.89575195 12.11352539 C23.69575195 12.44352539 10.49575195 12.77352539 -3.10424805 13.11352539 C-4.68399895 19.42836523 -4.68399895 19.42836523 -3.10424805 22.11352539 C-2.2728833 22.12810791 -1.44151855 22.14269043 -0.58496094 22.15771484 C2.54089388 22.21927911 5.66613565 22.29352196 8.79150391 22.37597656 C10.79283807 22.42503474 12.79450501 22.45985676 14.79614258 22.49438477 C31.28938015 22.95137623 31.28938015 22.95137623 36.46948242 27.4934082 C41.05238205 32.72772607 42.31146884 36.85377818 42.1418457 43.64868164 C41.63377582 48.73744508 39.64937387 51.39266965 36.02075195 54.86352539 C29.916573 59.25853424 25.09269521 59.3894028 17.7824707 59.30883789 C16.81291946 59.306008 15.84336823 59.3031781 14.84443665 59.30026245 C11.7572479 59.2890953 8.67035256 59.26399691 5.58325195 59.23852539 C3.48625094 59.22849112 1.38924537 59.21936605 -0.70776367 59.21118164 C-5.84003765 59.18916727 -10.97209315 59.1546611 -16.10424805 59.11352539 C-16.10424805 55.15352539 -16.10424805 51.19352539 -16.10424805 47.11352539 C-14.81212402 47.09370605 -13.52 47.07388672 -12.1887207 47.0534668 C-7.40645459 46.97754171 -2.624498 46.88880461 2.1574707 46.79614258 C4.22934877 46.75779854 6.30129464 46.72295534 8.37329102 46.69165039 C11.34717083 46.6461173 14.32058157 46.58810421 17.29418945 46.52758789 C18.68956436 46.51026108 18.68956436 46.51026108 20.11312866 46.49258423 C20.97386993 46.47271454 21.83461121 46.45284485 22.72143555 46.43237305 C23.86060928 46.41238754 23.86060928 46.41238754 25.02279663 46.39199829 C27.13887456 46.26735487 27.13887456 46.26735487 28.89575195 44.11352539 C28.73158163 40.5475992 28.73158163 40.5475992 27.89575195 37.11352539 C25.00019524 35.66574704 22.46741642 36.00403775 19.2355957 36.00805664 C17.87034568 35.99458504 16.50511028 35.97955908 15.13989258 35.96313477 C12.99590748 35.94044322 10.8535597 35.92590633 8.70947266 35.93847656 C0.65772672 35.97309767 -5.87663908 35.78768377 -12.49438477 30.72094727 C-16.26384377 26.95720476 -17.24122254 22.82031491 -17.54174805 17.67602539 C-17.35224253 12.84775451 -15.98043877 9.0012205 -13.10424805 5.11352539 C-8.87600723 1.74819086 -5.39914757 -0.01661276 0 0 Z " fill="#260848" transform="translate(80.104248046875,112.886474609375)"/>
<path d="M0 0 C1.31902817 0.00424484 1.31902817 0.00424484 2.66470337 0.00857544 C5.45629844 0.01971538 8.2475654 0.04480839 11.0390625 0.0703125 C12.93879743 0.0803503 14.83853742 0.08947475 16.73828125 0.09765625 C21.38033357 0.11963444 26.02214252 0.1541214 30.6640625 0.1953125 C30.6640625 4.1553125 30.6640625 8.1153125 30.6640625 12.1953125 C29.49311035 12.21513184 28.3221582 12.23495117 27.11572266 12.25537109 C22.78070176 12.33131331 18.44602155 12.4200477 14.11132812 12.51269531 C12.23346674 12.55103227 10.35553074 12.58587677 8.47753906 12.6171875 C5.78162929 12.66273613 3.08623538 12.72074625 0.390625 12.78125 C-0.87350723 12.79857681 -0.87350723 12.79857681 -2.16317749 12.81625366 C-6.72614707 12.73724431 -6.72614707 12.73724431 -10.3359375 15.1953125 C-10.01267197 18.79210316 -10.01267197 18.79210316 -9.3359375 22.1953125 C-8.50457275 22.20989502 -7.67320801 22.22447754 -6.81665039 22.23950195 C-3.69079557 22.30106622 -0.56555381 22.37530907 2.55981445 22.45776367 C4.56114861 22.50682185 6.56281556 22.54164387 8.56445312 22.57617188 C24.68401336 23.02280956 24.68401336 23.02280956 30.8203125 27.9140625 C31.26375 28.501875 31.7071875 29.0896875 32.1640625 29.6953125 C32.628125 30.283125 33.0921875 30.8709375 33.5703125 31.4765625 C36.44276405 35.99041494 36.09851029 41.04630167 35.6640625 46.1953125 C33.69277507 51.99965882 29.94146871 55.40284161 24.60083008 58.32373047 C20.25251851 59.61423444 16.06153537 59.44033736 11.55078125 59.390625 C10.58123001 59.3877951 9.61167877 59.38496521 8.61274719 59.38204956 C5.52555845 59.37088241 2.43866311 59.34578402 -0.6484375 59.3203125 C-2.74543851 59.31027823 -4.84244408 59.30115316 -6.93945312 59.29296875 C-12.0717271 59.27095438 -17.2037826 59.23644821 -22.3359375 59.1953125 C-22.3359375 55.2353125 -22.3359375 51.2753125 -22.3359375 47.1953125 C-0.0609375 46.7003125 -0.0609375 46.7003125 22.6640625 46.1953125 C22.6640625 43.5553125 22.6640625 40.9153125 22.6640625 38.1953125 C20.77491321 35.87327046 20.77491321 35.87327046 17.62646484 35.95581055 C16.34723145 35.95621338 15.06799805 35.95661621 13.75 35.95703125 C12.33462599 35.94159657 10.91926125 35.92529186 9.50390625 35.90820312 C7.27892558 35.89183219 5.05462505 35.88276263 2.82958984 35.88989258 C-13.58111246 35.91006216 -13.58111246 35.91006216 -19.3359375 30.1953125 C-23.34091775 25.38454937 -23.12005547 19.89272224 -22.8828125 13.8828125 C-22.18948336 9.20779313 -20.72940479 6.9114029 -17.453125 3.61328125 C-11.93987234 -0.07917394 -6.38295903 -0.07806853 0 0 Z " fill="#270849" transform="translate(22.3359375,112.8046875)"/>
<path d="M0 0 C3.96 0 7.92 0 12 0 C12 7.59 12 15.18 12 23 C23.55 23 35.1 23 47 23 C47 15.41 47 7.82 47 0 C50.96 0 54.92 0 59 0 C59 19.47 59 38.94 59 59 C55.04 59 51.08 59 47 59 C47 51.08 47 43.16 47 35 C35.45 35 23.9 35 12 35 C12 42.92 12 50.84 12 59 C8.04 59 4.08 59 0 59 C0 39.53 0 20.06 0 0 Z " fill="#270849" transform="translate(129,113)"/>
<path d="M0 0 C0.84064499 0.00007553 1.68128998 0.00015106 2.54740906 0.00022888 C3.45062393 0.00539017 4.35383881 0.01055145 5.28442383 0.01586914 C6.21241287 0.01728409 7.14040192 0.01869904 8.09651184 0.02015686 C11.06152566 0.02575602 14.02646407 0.03830835 16.99145508 0.05102539 C19.00121961 0.0560405 21.01098533 0.06060339 23.02075195 0.06469727 C27.9485154 0.07572518 32.87622245 0.09298922 37.80395508 0.11352539 C37.80395508 4.07352539 37.80395508 8.03352539 37.80395508 12.11352539 C24.60395508 12.44352539 11.40395508 12.77352539 -2.19604492 13.11352539 C-2.52604492 24.00352539 -2.85604492 34.89352539 -3.19604492 46.11352539 C17.09895508 46.60852539 17.09895508 46.60852539 37.80395508 47.11352539 C37.80395508 51.07352539 37.80395508 55.03352539 37.80395508 59.11352539 C32.07481705 59.18787531 26.34596207 59.24222211 20.61645508 59.27832031 C18.66881414 59.29337439 16.72120692 59.31382219 14.77368164 59.33984375 C11.9685838 59.37637592 9.16393554 59.39328572 6.35864258 59.40649414 C5.05985672 59.42971992 5.05985672 59.42971992 3.73483276 59.45341492 C-2.86811741 59.45523865 -6.96715112 58.09476432 -12.00854492 53.61352539 C-15.71128086 49.38182717 -15.36982432 45.28931817 -15.39916992 39.93774414 C-15.40487 39.13496536 -15.41057007 38.33218658 -15.41644287 37.50508118 C-15.42588531 35.80629796 -15.43242385 34.10749649 -15.4362793 32.40869141 C-15.44596996 29.82104163 -15.4769935 27.23419143 -15.50854492 24.64672852 C-15.51507694 22.99373842 -15.52032663 21.34074267 -15.52416992 19.68774414 C-15.53651672 18.91879318 -15.54886353 18.14984222 -15.56158447 17.35758972 C-15.54180234 12.54153767 -14.82181847 9.30104634 -12.19604492 5.11352539 C-8.28308794 1.49404018 -5.30971959 -0.0159451 0 0 Z " fill="#270849" transform="translate(292.196044921875,112.886474609375)"/>
<path d="M0 0 C0.99 0.33 1.98 0.66 3 1 C3 4 3 4 0.73046875 6.3515625 C-0.17058594 7.22554687 -1.07164062 8.09953125 -2 9 C-3.28063916 10.75524456 -4.5089437 12.54964382 -5.6875 14.375 C-6.37199219 15.42429687 -7.05648437 16.47359375 -7.76171875 17.5546875 C-8.3038501 18.3914502 -8.3038501 18.3914502 -8.85693359 19.24511719 C-10.87792143 22.34782128 -12.94196153 25.42180466 -15 28.5 C-15.84133305 29.76159392 -16.68248005 31.02331193 -17.5234375 32.28515625 C-18.34895833 33.5234375 -19.17447917 34.76171875 -20 36 C-20.40379883 36.60569824 -20.80759766 37.21139648 -21.22363281 37.83544922 C-22.92431641 40.38647461 -22.92431641 40.38647461 -24.625 42.9375 C-25.60339844 44.40509766 -25.60339844 44.40509766 -26.6015625 45.90234375 C-27.29378906 46.94068359 -27.29378906 46.94068359 -28 48 C-23.64485052 46.60753724 -19.35095475 45.2132076 -15.1875 43.3125 C-12 42 -12 42 -8 42 C-8.33 43.32 -8.66 44.64 -9 46 C-10.093125 46.2475 -11.18625 46.495 -12.3125 46.75 C-17.68913709 48.08209321 -22.82583961 50.04066721 -28 52 C-24.97558293 54.50247275 -22.13873818 55.84593265 -18.4375 57.125 C-17.48746094 57.45757812 -16.53742188 57.79015625 -15.55859375 58.1328125 C-13.70742419 58.7602318 -11.85430185 59.38189938 -10 60 C-10.33 61.32 -10.66 62.64 -11 64 C-11.50015625 63.73445313 -12.0003125 63.46890625 -12.515625 63.1953125 C-15.86008115 61.58618737 -19.3003789 60.23802465 -22.75 58.875 C-24.04334213 58.36226264 -25.33663311 57.84939623 -26.62988281 57.33642578 C-27.74202148 56.89540527 -28.85416016 56.45438477 -30 56 C-29.57372314 56.83370117 -29.14744629 57.66740234 -28.70825195 58.52636719 C-23.92977192 67.96420886 -19.5662134 77.54109097 -15.32055664 87.22802734 C-14.4819006 89.13812857 -13.63772285 91.04571466 -12.79296875 92.953125 C-12.3033667 94.06848633 -11.81376465 95.18384766 -11.30932617 96.33300781 C-10.1423975 99.07301736 -10.1423975 99.07301736 -8 101 C-8 101.99 -8 102.98 -8 104 C-9.485 104.495 -9.485 104.495 -11 105 C-17.91259067 90.44585454 -24.43171465 75.71159604 -31 61 C-30.88118872 65.4475913 -30.75690603 69.89498695 -30.62768555 74.34228516 C-30.58453646 75.85331126 -30.54284844 77.36437986 -30.50268555 78.87548828 C-30.44449437 81.05514294 -30.38094448 83.23458763 -30.31640625 85.4140625 C-30.26141968 87.37786865 -30.26141968 87.37786865 -30.20532227 89.38134766 C-30.01914318 92.66261568 -29.61323184 95.77453146 -29 99 C-30.98 99.495 -30.98 99.495 -33 100 C-34.05488778 96.83533666 -34.06777269 94.75412608 -34 91.4375 C-33.92304338 82.93379336 -34.46685652 74.48269365 -35 66 C-35.33 68.97 -35.66 71.94 -36 75 C-37.98 75.495 -37.98 75.495 -40 76 C-40 71.8410377 -39.31670541 68.2543507 -38.46484375 64.20800781 C-38.31144531 63.47936523 -38.15804687 62.75072266 -38 62 C-39.96363424 64.57934246 -41.9199511 67.16414585 -43.875 69.75 C-44.43058594 70.47960937 -44.98617187 71.20921875 -45.55859375 71.9609375 C-46.09355469 72.66992188 -46.62851563 73.37890625 -47.1796875 74.109375 C-47.67194824 74.75874023 -48.16420898 75.40810547 -48.67138672 76.07714844 C-49.98979558 77.98523153 -51.0165985 79.90262088 -52 82 C-53.32 81.67 -54.64 81.34 -56 81 C-54.74895644 77.24686931 -52.79578342 75.79578342 -50 73 C-48.13549531 70.62693255 -46.40977861 68.16502967 -44.6875 65.6875 C-44.23310547 65.04232422 -43.77871094 64.39714844 -43.31054688 63.73242188 C-42.20264048 62.15802858 -41.10069475 60.57944354 -40 59 C-40.99 59.33 -41.98 59.66 -43 60 C-44.33106622 60.34227417 -45.66400079 60.67751743 -47 61 C-47 61.66 -47 62.32 -47 63 C-48.32 63 -49.64 63 -51 63 C-50.67 61.68 -50.34 60.36 -50 59 C-47.03 57.68 -44.06 56.36 -41 55 C-57.83 55 -74.66 55 -92 55 C-92 53.68 -92 52.36 -92 51 C-91.18269409 51.00785522 -91.18269409 51.00785522 -90.34887695 51.01586914 C-73.5418395 51.15319006 -56.7915683 50.67102027 -40 50 C-40.52432617 49.62190186 -41.04865234 49.24380371 -41.58886719 48.85424805 C-43.97619142 47.13238648 -46.3630995 45.40994891 -48.75 43.6875 C-49.575 43.09259766 -50.4 42.49769531 -51.25 41.88476562 C-52.04921875 41.30791016 -52.8484375 40.73105469 -53.671875 40.13671875 C-54.4050293 39.60780029 -55.13818359 39.07888184 -55.89355469 38.53393555 C-57.3102378 37.50229206 -58.7119503 36.44980388 -60.09863281 35.37817383 C-62.28416293 33.79402931 -64.46981265 32.91367877 -67 32 C-66.67 31.01 -66.34 30.02 -66 29 C-62.85684728 29.6044691 -60.883281 30.60059089 -58.35546875 32.546875 C-57.67806641 33.0625 -57.00066406 33.578125 -56.30273438 34.109375 C-55.25569336 34.92148438 -55.25569336 34.92148438 -54.1875 35.75 C-52.80657726 36.80805911 -51.42507137 37.86535758 -50.04296875 38.921875 C-49.37313965 39.43556641 -48.70331055 39.94925781 -48.01318359 40.47851562 C-45.05262437 42.71598896 -42.0316215 44.86003189 -39 47 C-39.28875 46.44570313 -39.5775 45.89140625 -39.875 45.3203125 C-40.24625 44.59585938 -40.6175 43.87140625 -41 43.125 C-41.37125 42.40570313 -41.7425 41.68640625 -42.125 40.9453125 C-43 39 -43 39 -43 37 C-43.99 36.67 -44.98 36.34 -46 36 C-45.67 35.01 -45.34 34.02 -45 33 C-43.1875 33.0625 -43.1875 33.0625 -41 34 C-39.4375 37.1875 -39.4375 37.1875 -38.80859375 38.91796875 C-37.72493881 41.70824934 -36.34874555 44.32954289 -35 47 C-34.28196118 42.55350644 -33.57008828 38.10608148 -32.86376953 33.65771484 C-32.62292582 32.14638017 -32.3804358 30.63530685 -32.13623047 29.12451172 C-31.78434004 26.94566362 -31.43849388 24.76592635 -31.09375 22.5859375 C-30.92969666 21.58244766 -30.92969666 21.58244766 -30.7623291 20.5586853 C-30.15385675 16.6672169 -29.89345445 12.93685818 -30 9 C-28.68 8.67 -27.36 8.34 -26 8 C-26 11.39280513 -26.24513473 14.50193364 -26.65625 17.859375 C-26.79160156 18.97441406 -26.92695313 20.08945312 -27.06640625 21.23828125 C-27.20949219 22.39714844 -27.35257812 23.55601563 -27.5 24.75 C-27.64308594 25.92433594 -27.78617187 27.09867188 -27.93359375 28.30859375 C-28.2869355 31.20599611 -28.6424845 34.10311018 -29 37 C-27.02 37.495 -27.02 37.495 -25 38 C-24.58459961 37.33790527 -24.16919922 36.67581055 -23.74121094 35.99365234 C-19.38902251 29.1000665 -14.87182514 22.3400766 -10.25 15.625 C-8.94138742 13.72226195 -7.63404968 11.81864636 -6.328125 9.9140625 C-5.7599707 9.0885791 -5.19181641 8.2630957 -4.60644531 7.41259766 C-2.98995461 4.98491359 -1.48035771 2.51257992 0 0 Z M-31 40 C-30 42 -30 42 -30 42 Z " fill="#4453A2" transform="translate(179,9)"/>
<path d="M0 0 C0.77085937 0.144375 1.54171875 0.28875 2.3359375 0.4375 C3.84027344 0.7159375 3.84027344 0.7159375 5.375 1 C6.87160156 1.2784375 6.87160156 1.2784375 8.3984375 1.5625 C11.64159221 2.10789539 12.81979881 2.06006706 16 1 C16.99 1.66 17.98 2.32 19 3 C19.3125 5.5 19.3125 5.5 19 8 C18.34 8.66 17.68 9.32 17 10 C14.375 9.625 14.375 9.625 12 9 C11.67 7.68 11.34 6.36 11 5 C10.01 5 9.02 5 8 5 C8.33 6.65 8.66 8.3 9 10 C7.68 10 6.36 10 5 10 C5.33 8.02 5.66 6.04 6 4 C4.68 4 3.36 4 2 4 C2 4.99 2 5.98 2 7 C2.66 7 3.32 7 4 7 C3.67 7.99 3.34 8.98 3 10 C1.68 9.67 0.36 9.34 -1 9 C-1.33 6.69 -1.66 4.38 -2 2 C-1.34 2 -0.68 2 0 2 C0 1.34 0 0.68 0 0 Z M15 4 C15 5.32 15 6.64 15 8 C15.33 6.68 15.66 5.36 16 4 C15.67 4 15.34 4 15 4 Z " fill="#250747" transform="translate(233,182)"/>
<path d="M0 0 C2.8992226 0.46761655 3.86675182 0.86675182 6 3 C6.66 2.01 7.32 1.02 8 0 C9.32 0 10.64 0 12 0 C12 3.63 12 7.26 12 11 C7.71 11 3.42 11 -1 11 C-1.09765625 3.28515625 -1.09765625 3.28515625 -1 1 C-0.67 0.67 -0.34 0.34 0 0 Z " fill="#250545" transform="translate(126,181)"/>
<path d="M0 0 C0 0.99 0 1.98 0 3 C-2.97 2.505 -2.97 2.505 -6 2 C-6 3.65 -6 5.3 -6 7 C-1.56909529 5.79157144 0.98112756 4.48331435 4 1 C5.32 1.66 6.64 2.32 8 3 C8.125 5.375 8.125 5.375 8 8 C7.34 8.66 6.68 9.32 6 10 C3.99759451 9.68143549 1.99788438 9.34578768 0 9 C-1.051875 9.185625 -2.10375 9.37125 -3.1875 9.5625 C-6 10 -6 10 -9 8 C-9.40305767 4.84271494 -9.49220789 2.84769137 -7.875 0.0625 C-5.07329973 -1.52513015 -3.03014356 -0.74070176 0 0 Z M4 4 C5 8 5 8 5 8 Z " fill="#250749" transform="translate(213,182)"/>
<path d="M0 0 C5.75 -0.125 5.75 -0.125 8 1 C8 1.66 8 2.32 8 3 C10.64 3 13.28 3 16 3 C15.67 3.99 15.34 4.98 15 6 C14.34 6 13.68 6 13 6 C13.33 7.65 13.66 9.3 14 11 C12.35 11 10.7 11 9 11 C9 9.02 9 7.04 9 5 C6.94009522 6.29467677 6.94009522 6.29467677 5 8 C5 8.99 5 9.98 5 11 C3.35 11 1.7 11 0 11 C0 7.37 0 3.74 0 0 Z M4 3 C4.33 3.66 4.66 4.32 5 5 C5.33 4.34 5.66 3.68 6 3 C5.34 3 4.68 3 4 3 Z " fill="#250749" transform="translate(63,181)"/>
<path d="M0 0 C0.99 0 1.98 0 3 0 C3.33 1.32 3.66 2.64 4 4 C3.34 4 2.68 4 2 4 C2 4.99 2 5.98 2 7 C2.66 7 3.32 7 4 7 C3.67 7.99 3.34 8.98 3 10 C2.01 10 1.02 10 0 10 C-0.66 8.35 -1.32 6.7 -2 5 C-2.99 5 -3.98 5 -5 5 C-5.33 5.66 -5.66 6.32 -6 7 C-4.68 7 -3.36 7 -2 7 C-2 7.66 -2 8.32 -2 9 C-4.375 9.625 -4.375 9.625 -7 10 C-9 8 -9 8 -9.125 5.375 C-9.08375 4.59125 -9.0425 3.8075 -9 3 C-6.42786866 1.38050989 -5.32330841 0.95591249 -2.25 1.375 C-1.5075 1.58125 -0.765 1.7875 0 2 C0 1.34 0 0.68 0 0 Z " fill="#250648" transform="translate(111,182)"/>
<path d="M0 0 C0 0.66 0 1.32 0 2 C0.99 2 1.98 2 3 2 C2.814375 2.5775 2.62875 3.155 2.4375 3.75 C1.95976454 6.20692525 2.24270636 7.64397534 3 10 C-3.0546875 10.1953125 -3.0546875 10.1953125 -5 10 C-7 8 -7 8 -7.046875 6.08984375 C-6.94890625 5.37957031 -6.8509375 4.66929687 -6.75 3.9375 C-6.66234375 3.22464844 -6.5746875 2.51179687 -6.484375 1.77734375 C-6.32453125 1.19082031 -6.1646875 0.60429687 -6 0 C-3.50907189 -1.24546405 -2.58919267 -0.7767578 0 0 Z " fill="#260849" transform="translate(195,182)"/>
<path d="M0 0 C0 3.96 0 7.92 0 12 C-1.98 12 -3.96 12 -6 12 C-6.66 11.34 -7.32 10.68 -8 10 C-7.8125 7.5 -7.8125 7.5 -7 5 C-6.01 4.34 -5.02 3.68 -4 3 C-4 2.34 -4 1.68 -4 1 C-2 0 -2 0 0 0 Z M-5 6 C-5 6.99 -5 7.98 -5 9 C-4.34 9 -3.68 9 -3 9 C-3 8.01 -3 7.02 -3 6 C-3.66 6 -4.32 6 -5 6 Z " fill="#250746" transform="translate(95,180)"/>
<path d="M0 0 C2.64 0 5.28 0 8 0 C8.33 2.64 8.66 5.28 9 8 C6.03 8 3.06 8 0 8 C0 5.36 0 2.72 0 0 Z M4 2 C5 6 5 6 5 6 Z " fill="#260847" transform="translate(222,184)"/>
<path d="M0 0 C2.64 0 5.28 0 8 0 C8.33 2.64 8.66 5.28 9 8 C6.03 8 3.06 8 0 8 C0 5.36 0 2.72 0 0 Z M4 2 C5 6 5 6 5 6 Z " fill="#250746" transform="translate(147,184)"/>
<path d="M0 0 C2.125 0.9375 2.125 0.9375 4 2 C4 3.98 4 5.96 4 8 C1.625 8.625 1.625 8.625 -1 9 C-1.66 8.34 -2.32 7.68 -3 7 C-2.75 3.9375 -2.75 3.9375 -2 1 C-1.34 0.67 -0.68 0.34 0 0 Z " fill="#240744" transform="translate(82,183)"/>
<path d="M0 0 C3.75283733 1.45271122 3.75283733 1.45271122 4.875 3.9375 C5 6 5 6 3 9 C-1.875 8.125 -1.875 8.125 -3 7 C-3.25 4.5625 -3.25 4.5625 -3 2 C-2.01 1.34 -1.02 0.68 0 0 Z M0 3 C0.33 4.32 0.66 5.64 1 7 C1.33 5.68 1.66 4.36 2 3 C1.34 3 0.68 3 0 3 Z " fill="#220747" transform="translate(171,183)"/>
<path d="M0 0 C1.32 0.66 2.64 1.32 4 2 C4.125 4.375 4.125 4.375 4 7 C3.34 7.66 2.68 8.32 2 9 C-0.625 8.625 -0.625 8.625 -3 8 C-3.75 6.25 -3.75 6.25 -4 4 C-2.0625 1.75 -2.0625 1.75 0 0 Z M0 3 C1 7 1 7 1 7 Z " fill="#250649" transform="translate(142,183)"/>
<path d="M0 0 C0.33 3.96 0.66 7.92 1 12 C-0.65 12 -2.3 12 -4 12 C-4 8.37 -4 4.74 -4 1 C-2 0 -2 0 0 0 Z " fill="#270849" transform="translate(257,180)"/>
<path d="M0 0 C1.32 0 2.64 0 4 0 C4 3.63 4 7.26 4 11 C2.68 11 1.36 11 0 11 C0.33 9.02 0.66 7.04 1 5 C0.34 4.67 -0.32 4.34 -1 4 C-0.67 2.68 -0.34 1.36 0 0 Z " fill="#290645" transform="translate(157,181)"/>
<path d="M0 0 C0.99 0 1.98 0 3 0 C3.33 3.63 3.66 7.26 4 11 C2.35 11 0.7 11 -1 11 C-1.125 3.375 -1.125 3.375 0 0 Z " fill="#250744" transform="translate(97,181)"/>
<path d="M0 0 C0.99 0 1.98 0 3 0 C4 6.625 4 6.625 4 10 C2.68 9.67 1.36 9.34 0 9 C-1.125 2.25 -1.125 2.25 0 0 Z " fill="#250847" transform="translate(163,182)"/>
<path d="M0 0 C1.98 0 3.96 0 6 0 C6 0.99 6 1.98 6 3 C5.01 3 4.02 3 3 3 C3.66 4.65 4.32 6.3 5 8 C3.35 8 1.7 8 0 8 C0 5.36 0 2.72 0 0 Z " fill="#240644" transform="translate(177,184)"/>
<path d="M0 0 C1.98 0.495 1.98 0.495 4 1 C3.34 3.97 2.68 6.94 2 10 C1.34 9.67 0.68 9.34 0 9 C-0.44921875 7.1875 -0.44921875 7.1875 -0.6875 5 C-0.77386719 4.278125 -0.86023438 3.55625 -0.94921875 2.8125 C-0.96597656 2.214375 -0.98273438 1.61625 -1 1 C-0.67 0.67 -0.34 0.34 0 0 Z " fill="#4651A0" transform="translate(150,17)"/>
<path d="M0 0 C0.99 0 1.98 0 3 0 C2.67 1.65 2.34 3.3 2 5 C1.01 5.33 0.02 5.66 -1 6 C-0.67 4.02 -0.34 2.04 0 0 Z " fill="#260644" transform="translate(116,189)"/>
</svg>
